Coordinates
version=1
nRows=17
nColumns=33
inDegrees=yes

Units are S.I. units (second, meters, Newtons, ...)
Angles are in degrees.

endheader
time	ground_thorax_rot_x	ground_thorax_rot_y	ground_thorax_rot_z	ground_thorax_tx	ground_thorax_ty	ground_thorax_tz	clav_prot_r	clav_elev_r	scapula_abduction_r	scapula_elevation_r	scapula_upward_rot_r	scapula_winging_r	shoulder_elv_r	plane_of_elev_r	axial_rot_r	elbow_flexion_r	pro_sup_r	wrist_flex_r	wrist_dev_r	clav_prot_l	clav_elev_l	scapula_abduction_l	scapula_elevation_l	scapula_upward_rot_l	scapula_winging_l	shoulder_elv_l	plane_of_elev_l	axial_rot_l	elbow_flexion_l	pro_sup_l	wrist_flex_l	wrist_dev_l	
2.8800	14.817398	43.889721	17.147781	-0.014421	1.026851	-0.064732	-22.297706	20.952383	-16.331376	13.947869	41.635402	-13.676292	79.308527	-73.218606	102.031158	74.954280	-31.671395	13.150376	-7.324495	23.250426	-19.342340	-45.000000	4.521542	-13.606650	15.614296	27.599286	-16.912773	-23.565377	47.641180	0.824185	28.466757	-1.326720	
2.8900	14.777947	43.992573	17.156212	-0.014633	1.026686	-0.064769	-22.312600	20.956556	-16.392561	13.955479	41.602915	-13.671518	77.726984	-73.148766	100.403712	74.473270	-32.299070	12.936549	-7.157479	23.344823	-19.516037	-45.000000	4.442969	-14.241983	15.548768	27.752700	-16.070754	-23.089381	47.068541	0.859160	28.707613	-1.207347	
2.9000	14.727611	44.095084	17.173997	-0.014853	1.026548	-0.064800	-22.329081	20.950286	-16.438936	13.952582	41.580853	-13.671326	76.190805	-73.082193	98.838253	73.969849	-32.861717	12.714840	-7.007371	23.434098	-19.696360	-45.000000	4.378864	-14.849042	15.476178	27.898929	-15.272717	-22.608024	46.495567	0.886673	28.914203	-1.088930	
2.9100	14.676727	44.203189	17.196175	-0.015089	1.026421	-0.064834	-22.344441	20.940433	-16.479577	13.946707	41.559684	-13.671643	74.704525	-73.012528	97.319730	73.454973	-33.370052	12.482141	-6.864409	23.519543	-19.886813	-45.000000	4.328767	-15.437263	15.394913	28.037633	-14.496965	-22.125645	45.908226	0.906832	29.107510	-0.964318	
2.9200	14.613037	44.312551	17.218862	-0.015326	1.026340	-0.064869	-22.372178	20.890794	-16.513723	13.907273	41.536984	-13.680778	73.336310	-72.929234	95.918325	72.935549	-33.823807	12.238041	-6.730211	23.601085	-20.082658	-45.000000	4.290643	-16.002192	15.307893	28.174666	-13.751357	-21.627715	45.318158	0.923461	29.266999	-0.834717	
2.9300	14.557080	44.430394	17.239106	-0.015583	1.026242	-0.064900	-22.399141	20.853440	-16.563422	13.879401	41.506236	-13.685945	71.940566	-72.827855	94.473743	72.413699	-34.272944	11.971511	-6.588301	23.686195	-20.291271	-45.000000	4.243340	-16.620747	15.215036	28.343498	-12.950687	-21.121947	44.708362	0.933951	29.459629	-0.689480	
2.9400	14.493664	44.552178	17.261852	-0.015845	1.026175	-0.064931	-22.432238	20.793759	-16.607699	13.832726	41.474730	-13.695820	70.630172	-72.714674	93.118434	71.881578	-34.683284	11.693251	-6.452818	23.769408	-20.509451	-45.000000	4.202042	-17.242092	15.115070	28.527812	-12.157154	-20.614021	44.093825	0.938466	29.637893	-0.535674	
2.9500	14.436384	44.676392	17.278538	-0.016115	1.026090	-0.064953	-22.466805	20.751484	-16.665200	13.799631	41.446426	-13.704728	69.251262	-72.586621	91.695633	71.335600	-35.114282	11.407624	-6.302032	23.855332	-20.732843	-45.000000	4.146311	-17.914818	15.013821	28.739697	-11.306735	-20.086536	43.457381	0.930561	29.841037	-0.372745	
2.9600	14.369400	44.795520	17.290667	-0.016377	1.026036	-0.064969	-22.512452	20.690835	-16.718189	13.748362	41.429867	-13.722569	67.893029	-72.444880	90.316750	70.765769	-35.536850	11.127069	-6.142655	23.937261	-20.953936	-45.000000	4.092566	-18.574949	14.912052	28.951191	-10.467692	-19.530977	42.809372	0.906342	30.018494	-0.211081	
2.9700	14.317996	44.916160	17.300341	-0.016652	1.025917	-0.064964	-22.547278	20.700744	-16.790682	13.753122	41.430087	-13.731759	66.295789	-72.291576	88.728615	70.156095	-36.026255	10.851183	-5.963912	24.023771	-21.181442	-45.000000	4.011612	-19.324765	14.810134	29.213004	-9.536774	-18.979483	42.139433	0.863704	30.244248	-0.035717	
2.9800	14.267256	45.037118	17.316918	-0.016931	1.025785	-0.064959	-22.574010	20.735055	-16.854151	13.776222	41.444288	-13.738689	64.643688	-72.134348	87.129803	69.504748	-36.529476	10.593800	-5.786179	24.106310	-21.412377	-45.000000	3.935392	-20.067000	14.704315	29.481672	-8.620303	-18.456607	41.463623	0.810750	30.458237	0.143984	
2.9900	14.213041	45.150776	17.337909	-0.017206	1.025646	-0.064951	-22.596582	20.787252	-16.907553	13.811353	41.476039	-13.746715	62.935299	-71.968574	85.521445	68.813357	-37.047636	10.358205	-5.609106	24.184166	-21.640962	-45.000000	3.859046	-20.802233	14.598328	29.756922	-7.716998	-17.948622	40.785260	0.749555	30.653297	0.323753	
3.0000	14.157122	45.259905	17.358439	-0.017474	1.025508	-0.064950	-22.616718	20.840550	-16.950259	13.846306	41.515612	-13.755856	61.240525	-71.789067	83.955892	68.093011	-37.577834	10.140670	-5.420206	24.254693	-21.863543	-45.000000	3.790960	-21.498753	14.492700	30.013602	-6.844657	-17.442364	40.095059	0.681267	30.835221	0.501374	
3.0100	14.105883	45.362552	17.377352	-0.017739	1.025341	-0.064945	-22.626809	20.932775	-16.992944	13.912029	41.567886	-13.760131	59.410992	-71.594997	82.297650	67.333619	-38.152210	9.941875	-5.229131	24.323967	-22.082312	-45.000000	3.707197	-22.229174	14.390633	30.291346	-5.936001	-16.939072	39.398665	0.616182	31.023988	0.679421	
3.0200	14.047768	45.464583	17.405055	-0.017999	1.025192	-0.064959	-22.631123	21.010498	-17.017405	13.967120	41.615861	-13.763410	57.671820	-71.394413	80.758016	66.553535	-38.711624	9.760377	-5.052269	24.386419	-22.297682	-45.000000	3.642295	-22.897961	14.286472	30.545395	-5.093513	-16.464554	38.707948	0.567443	31.180957	0.849075	
3.0300	13.966924	45.557900	17.435023	-0.018238	1.025106	-0.064982	-22.649851	21.034997	-17.029950	13.977700	41.660618	-13.777643	56.081438	-71.175196	79.389902	65.762582	-39.247754	9.591228	-4.878367	24.440239	-22.501201	-45.000000	3.595017	-23.489452	14.184677	30.768367	-4.326772	-15.968118	38.019715	0.527101	31.289415	1.003510	
3.0400	13.878362	45.655168	17.468019	-0.018472	1.025054	-0.065022	-22.673259	21.019580	-17.036328	13.958061	41.687816	-13.793795	54.671899	-70.940310	78.198716	64.978580	-39.774292	9.420166	-4.695271	24.487590	-22.702946	-45.000000	3.571827	-24.008912	14.078915	30.962829	-3.625972	-15.476391	37.324684	0.491077	31.396037	1.155718	
